<svg width="27" height="27" viewBox="0 0 27 27" fill="none" xmlns="http://www.w3.org/2000/svg">
<path fill-rule="evenodd" clip-rule="evenodd" d="M7.93424 0.081C9.37425 0.0149973 9.83325 0 13.5 0C17.1675 0 17.6257 0.0157459 19.0649 0.081C20.5027 0.146254 21.4845 0.375005 22.3432 0.70875C23.2439 1.04786 24.0598 1.57918 24.7342 2.26575C25.4209 2.94005 25.9523 3.75602 26.2913 4.65675C26.6249 5.5155 26.853 6.49726 26.919 7.93424C26.985 9.37425 27 9.83325 27 13.5C27 17.1667 26.9843 17.6257 26.919 19.0658C26.8537 20.5027 26.6249 21.4845 26.2913 22.3432C25.9463 23.2306 25.4842 23.9842 24.7342 24.7342C24.0599 25.4209 23.2439 25.9523 22.3432 26.2913C21.4845 26.6249 20.5027 26.853 19.0658 26.919C17.6257 26.985 17.1667 27 13.5 27C9.83325 27 9.37425 26.9843 7.93424 26.919C6.49726 26.8537 5.5155 26.6249 4.65675 26.2913C3.76949 25.9463 3.01575 25.4842 2.26575 24.7342C1.57906 24.0599 1.0477 23.2439 0.70875 22.3432C0.375005 21.4845 0.147003 20.5027 0.081 19.0658C0.0149973 17.6257 0 17.1675 0 13.5C0 9.8325 0.0157459 9.37425 0.081 7.93501C0.146254 6.49726 0.375005 5.5155 0.70875 4.65675C1.04786 3.75608 1.57918 2.94015 2.26575 2.26575C2.94004 1.57906 3.75601 1.0477 4.65675 0.70875C5.5155 0.375005 6.49726 0.147003 7.93424 0.081ZM18.9555 2.511C17.532 2.44649 17.1045 2.43225 13.5 2.43225C9.8955 2.43225 9.468 2.44649 8.0445 2.511C6.72825 2.571 6.0135 2.79074 5.53799 2.976C4.908 3.2205 4.45799 3.51299 3.98549 3.98549C3.51376 4.45799 3.2205 4.908 2.976 5.53799C2.79074 6.0135 2.571 6.72825 2.511 8.0445C2.44649 9.468 2.43225 9.8955 2.43225 13.5C2.43225 17.1045 2.44649 17.532 2.511 18.9555C2.571 20.2717 2.79074 20.9865 2.976 21.4621C3.19227 22.0484 3.53723 22.5789 3.98549 23.0146C4.42105 23.4628 4.95157 23.8077 5.53799 24.024C6.0135 24.2093 6.72825 24.429 8.0445 24.489C9.468 24.5536 9.89475 24.5678 13.5 24.5678C17.1052 24.5678 17.532 24.5536 18.9555 24.489C20.2717 24.429 20.9865 24.2093 21.4621 24.024C22.092 23.7795 22.5421 23.4871 23.0146 23.0146C23.4628 22.579 23.8077 22.0484 24.024 21.4621C24.2093 20.9865 24.429 20.2717 24.489 18.9555C24.5536 17.532 24.5678 17.1045 24.5678 13.5C24.5678 9.8955 24.5536 9.468 24.489 8.0445C24.429 6.72825 24.2093 6.0135 24.024 5.53799C23.7795 4.908 23.4871 4.45799 23.0146 3.98549C22.5421 3.51376 22.092 3.2205 21.4621 2.976C20.9865 2.79074 20.2717 2.571 18.9555 2.511ZM11.7763 17.6616C12.3228 17.888 12.9085 18.0045 13.5 18.0045C14.6947 18.0045 15.8404 17.5299 16.6851 16.6851C17.53 15.8404 18.0046 14.6946 18.0046 13.5C18.0046 12.3054 17.53 11.1596 16.6851 10.3148C15.8404 9.47008 14.6947 8.99549 13.5 8.99549C12.9085 8.99549 12.3228 9.11201 11.7763 9.33838C11.2297 9.56475 10.7332 9.89654 10.3149 10.3148C9.89659 10.7331 9.56479 11.2297 9.33842 11.7762C9.11205 12.3227 8.99554 12.9085 8.99554 13.5C8.99554 14.0915 9.11205 14.6773 9.33842 15.2238C9.56479 15.7703 9.89659 16.2669 10.3149 16.6851C10.7332 17.1034 11.2297 17.4352 11.7763 17.6616ZM8.59343 8.59338C9.89474 7.29206 11.6597 6.56099 13.5 6.56099C15.3404 6.56099 17.1054 7.29206 18.4066 8.59338C19.7079 9.89469 20.439 11.6597 20.439 13.5C20.439 15.3403 19.7079 17.1052 18.4066 18.4066C17.1054 19.7079 15.3404 20.439 13.5 20.439C11.6597 20.439 9.89474 19.7079 8.59343 18.4066C7.29211 17.1052 6.56104 15.3403 6.56104 13.5C6.56104 11.6597 7.29211 9.89469 8.59343 8.59338ZM21.9776 7.59483C22.2852 7.28721 22.458 6.87002 22.458 6.435C22.458 5.99996 22.2852 5.58277 21.9776 5.27516C21.67 4.96756 21.2528 4.79475 20.8177 4.79475C20.3828 4.79475 19.9655 4.96756 19.658 5.27516C19.3503 5.58277 19.1775 5.99996 19.1775 6.435C19.1775 6.87002 19.3503 7.28721 19.658 7.59483C19.9655 7.90243 20.3828 8.07525 20.8177 8.07525C21.2528 8.07525 21.67 7.90243 21.9776 7.59483Z" fill="white"/>
</svg>
